<svg width="88" height="46" viewBox="0 0 88 46" fill="none" xmlns="http://www.w3.org/2000/svg">
<path d="M36.5597 23.9999L36.5597 23.9999L36.5609 24.0003C36.9868 24.152 37.4606 24.2273 37.9815 24.2273C38.6474 24.2273 39.2093 24.097 39.6631 23.8318L39.6635 23.8315C39.8173 23.7404 39.945 23.6666 40.0469 23.61C40.1465 23.5546 40.2324 23.5174 40.3051 23.4967L40.3051 23.4967L40.3082 23.4957C40.3881 23.4691 40.4674 23.4533 40.5463 23.448L40.5463 23.4482L40.5512 23.4475C40.6325 23.4367 40.7345 23.4311 40.8581 23.4311H40.933V23.3561V22.2175C40.933 21.9008 40.9879 21.7063 41.0763 21.6085L41.0763 21.6085L41.0775 21.6072C41.1644 21.5066 41.3307 21.4448 41.6029 21.4448H41.6779V21.3699V21.0274V20.9525H41.6029H38.8291H38.7541V21.0274V21.3699V21.4385L38.8225 21.4446C39.1425 21.4726 39.3533 21.5476 39.4719 21.6563L39.4719 21.6563L39.4732 21.6574C39.5877 21.7577 39.653 21.9239 39.653 22.1746C39.653 22.5973 39.522 22.921 39.2664 23.1553C39.0161 23.3843 38.6597 23.5037 38.187 23.5037C37.5334 23.5037 37.0436 23.2752 36.706 22.8233C36.3656 22.3676 36.1901 21.7039 36.1901 20.822C36.1901 19.9232 36.3683 19.2359 36.7154 18.751C37.0658 18.2638 37.5533 18.0203 38.187 18.0203C38.6911 18.0203 39.1038 18.1639 39.4306 18.4472L39.4311 18.4476C39.7643 18.7317 39.9885 19.1324 40.0999 19.6561L40.1125 19.7155H40.1732H40.6012H40.6762V19.6405V17.4745V17.3995H40.6012H40.293H40.2376L40.2214 17.4525L40.0863 17.8934C39.7423 17.6985 39.4189 17.5546 39.1162 17.4627C38.7891 17.3634 38.445 17.3139 38.0842 17.3139C37.5623 17.3139 37.0847 17.4009 36.6524 17.5761C36.2209 17.7453 35.8496 17.9878 35.5394 18.3038C35.2293 18.6197 34.9872 18.9994 34.8126 19.4418L34.8126 19.4418L34.8124 19.4422C34.6431 19.88 34.5591 20.363 34.5591 20.8905C34.5591 21.4004 34.6373 21.8634 34.7951 22.2783L34.7951 22.2783L34.7956 22.2795C34.9589 22.6879 35.1869 23.039 35.48 23.3321L35.48 23.3321L35.481 23.3331C35.7801 23.6204 36.14 23.8425 36.5597 23.9999ZM47.0465 20.7816L47.047 20.7812C47.5485 20.4409 47.799 19.946 47.799 19.3066C47.799 18.6804 47.5669 18.1992 47.0989 17.8752C46.6357 17.5545 45.9615 17.3995 45.0872 17.3995H42.125H42.05V17.4745V17.8169V17.8871L42.12 17.8917C42.2888 17.903 42.4201 17.9225 42.5158 17.9491L42.5158 17.9492L42.5205 17.9502C42.6148 17.9701 42.6805 18.0106 42.7248 18.0681L42.7247 18.0682L42.7266 18.0704C42.7716 18.1245 42.8052 18.2064 42.8212 18.3236L42.8211 18.3236L42.8218 18.3275C42.8434 18.4408 42.8548 18.5953 42.8548 18.7929V22.7483C42.8548 22.9457 42.8434 23.1034 42.8217 23.2228C42.8005 23.3395 42.7621 23.4218 42.7118 23.4767C42.662 23.531 42.5857 23.5738 42.4757 23.6C42.3627 23.6269 42.2141 23.6437 42.0285 23.6493L41.9558 23.6515V23.7242V24.0667V24.1416H42.0308H45.4296H45.5046V24.0667V23.7242V23.6493H45.4296C45.1629 23.6493 44.9529 23.6379 44.7981 23.6158C44.647 23.5942 44.5356 23.5493 44.4581 23.4863C44.3819 23.4244 44.3298 23.3376 44.3044 23.2207C44.2773 23.0907 44.2632 22.9195 44.2632 22.7054V21.2736H44.9159C45.836 21.2736 46.5495 21.1129 47.0465 20.7816ZM44.7447 20.61H44.2632V18.0995C44.2632 18.0636 44.2725 18.0502 44.2782 18.0448C44.2848 18.0386 44.3015 18.0289 44.3423 18.0289H45.0015C45.4525 18.0289 45.768 18.143 45.9654 18.3559C46.1655 18.5719 46.2707 18.8823 46.2707 19.2981C46.2707 19.765 46.1458 20.0912 45.9113 20.2944C45.6744 20.4998 45.2909 20.61 44.7447 20.61Z" fill="#1D1F2B" stroke="#1D1F2B" stroke-width="0.149907"/>
<path d="M31.8908 29.633C31.8908 29.0733 31.8768 28.6325 31.8488 28.3107C31.8208 27.9749 31.7439 27.723 31.6179 27.5551C31.492 27.3732 31.3031 27.2543 31.0512 27.1983C30.8134 27.1283 30.4846 27.0724 30.0648 27.0304V26.1909H34.8082V32.5503C34.8082 33.4039 34.8152 34.0755 34.8291 34.5652C34.8571 35.041 34.8991 35.3978 34.9551 35.6356C34.9971 35.8175 35.046 35.9644 35.102 36.0764C35.158 36.1743 35.2489 36.2583 35.3748 36.3282C35.5008 36.3842 35.6687 36.4262 35.8786 36.4542C36.1024 36.4682 36.3893 36.4752 36.7391 36.4752V37.2937L32.5624 37.5456L32.3315 35.6776H32.2476C31.8838 36.2653 31.3731 36.72 30.7154 37.0418C30.0578 37.3637 29.3232 37.5246 28.5117 37.5246C27.0145 37.5246 25.8741 36.9929 25.0906 35.9295C24.4889 35.1179 24.1881 33.9636 24.1881 32.4664V29.633C24.1881 29.0593 24.1741 28.6115 24.1461 28.2897C24.1181 27.9539 24.0411 27.702 23.9152 27.5341C23.8033 27.3662 23.6284 27.2543 23.3905 27.1983C23.1526 27.1283 22.8238 27.0724 22.4041 27.0304V26.1909H27.1054V32.1306C27.1054 33.5438 27.2803 34.5722 27.6301 35.2159C27.98 35.8455 28.5396 36.1603 29.3092 36.1603C30.1348 36.1603 30.7714 35.7825 31.2192 35.027C31.6669 34.2994 31.8908 33.229 31.8908 31.8157V29.633Z" fill="#1D1F2B"/>
<path d="M45.1131 28.8354C45.4069 28.4576 45.6028 28.1918 45.7008 28.0378C45.7987 27.8839 45.8477 27.73 45.8477 27.5761C45.8477 27.3802 45.7637 27.2403 45.5958 27.1563C45.4419 27.0724 45.1761 27.0304 44.7983 27.0304V26.1909H49.6256V27.0304C49.3597 27.0444 49.1219 27.0724 48.912 27.1144C48.7021 27.1563 48.4922 27.2403 48.2823 27.3662C48.0725 27.4782 47.8556 27.6391 47.6317 27.8489C47.4078 28.0588 47.149 28.3317 46.8551 28.6675L44.7143 31.1441L48.0305 35.4047C48.3523 35.8245 48.6671 36.1114 48.9749 36.2653C49.2828 36.4052 49.6676 36.4752 50.1293 36.4752V37.3147H43.455V36.4752C43.8608 36.4752 44.1406 36.4402 44.2946 36.3702C44.4625 36.3003 44.5464 36.1673 44.5464 35.9714C44.5464 35.8175 44.4974 35.6566 44.3995 35.4887C44.3015 35.3068 44.1546 35.0759 43.9587 34.7961L42.7414 33.117L41.8179 34.2294C41.5801 34.5232 41.3912 34.7611 41.2512 34.943C41.1113 35.1249 41.0064 35.2718 40.9364 35.3838C40.8665 35.4957 40.8175 35.5866 40.7895 35.6566C40.7755 35.7126 40.7685 35.7685 40.7685 35.8245C40.7685 36.0624 40.8665 36.2303 41.0623 36.3282C41.2722 36.4262 41.601 36.4752 42.0488 36.4752V37.3147H36.7807V36.4752C37.2285 36.4752 37.6622 36.4122 38.082 36.2863C38.5018 36.1463 38.8306 35.9365 39.0685 35.6566L41.9858 32.2355L38.4808 27.786C38.2149 27.4502 37.9771 27.2403 37.7672 27.1563C37.5713 27.0724 37.2984 27.0304 36.9486 27.0304V26.1909H43.3501V27.0304C42.6365 27.0304 42.2797 27.2263 42.2797 27.6181C42.2797 27.758 42.3566 27.9399 42.5105 28.1638L44.0007 30.2626L45.1131 28.8354Z" fill="#1D1F2B"/>
<path d="M59.5413 29.633C59.5413 29.0733 59.5273 28.6325 59.4993 28.3107C59.4713 27.9749 59.3943 27.723 59.2684 27.5551C59.1425 27.3732 58.9536 27.2543 58.7017 27.1983C58.4639 27.1283 58.135 27.0724 57.7153 27.0304V26.1909H62.4586V32.5503C62.4586 33.4039 62.4656 34.0755 62.4796 34.5652C62.5076 35.041 62.5496 35.3978 62.6056 35.6356C62.6475 35.8175 62.6965 35.9644 62.7525 36.0764C62.8084 36.1743 62.8994 36.2583 63.0253 36.3282C63.1513 36.3842 63.3192 36.4262 63.529 36.4542C63.7529 36.4682 64.0398 36.4752 64.3896 36.4752V37.2937L60.2129 37.5456L59.982 35.6776H59.8981C59.5343 36.2653 59.0235 36.72 58.3659 37.0418C57.7083 37.3637 56.9737 37.5246 56.1621 37.5246C54.665 37.5246 53.5246 36.9929 52.741 35.9295C52.1394 35.1179 51.8385 33.9636 51.8385 32.4664V29.633C51.8385 29.0593 51.8246 28.6115 51.7966 28.2897C51.7686 27.9539 51.6916 27.702 51.5657 27.5341C51.4538 27.3662 51.2789 27.2543 51.041 27.1983C50.8031 27.1283 50.4743 27.0724 50.0545 27.0304V26.1909H54.7559V32.1306C54.7559 33.5438 54.9308 34.5722 55.2806 35.2159C55.6304 35.8455 56.1901 36.1603 56.9597 36.1603C57.7852 36.1603 58.4219 35.7825 58.8696 35.027C59.3174 34.2994 59.5413 33.229 59.5413 31.8157V29.633Z" fill="#1D1F2B"/>
<path d="M69.6573 34.0615C69.6573 34.6072 69.6783 35.041 69.7203 35.3628C69.7762 35.6706 69.8812 35.9085 70.0351 36.0764C70.189 36.2443 70.4129 36.3562 70.7067 36.4122C71.0006 36.4542 71.3923 36.4752 71.8821 36.4752V37.3147H64.872V36.4752C65.2917 36.4472 65.6275 36.4052 65.8794 36.3492C66.1313 36.2933 66.3202 36.1813 66.4461 36.0134C66.572 35.8455 66.649 35.6076 66.677 35.2998C66.7189 34.978 66.7399 34.5512 66.7399 34.0195V31.4589C66.7399 30.5914 66.7189 29.8988 66.677 29.3811C66.635 28.8634 66.544 28.4646 66.4041 28.1848C66.2642 27.9049 66.0613 27.723 65.7955 27.6391C65.5436 27.5411 65.2078 27.4921 64.788 27.4921V26.7576L68.9857 25.981L69.3215 28.3946H69.4054C69.7832 27.6531 70.28 27.0654 70.8956 26.6316C71.5113 26.1979 72.1619 25.981 72.8475 25.981C73.3792 25.981 73.813 26.1139 74.1488 26.3798C74.4846 26.6456 74.6525 26.9814 74.6525 27.3872C74.6525 27.835 74.5196 28.2127 74.2537 28.5206C74.0019 28.8284 73.6521 28.9823 73.2043 28.9823C72.9945 28.9823 72.8056 28.9403 72.6376 28.8564C72.4697 28.7724 72.3158 28.6815 72.1759 28.5835C72.05 28.4716 71.9171 28.3737 71.7771 28.2897C71.6512 28.1918 71.5183 28.1428 71.3783 28.1428C71.1125 28.1428 70.8606 28.3177 70.6228 28.6675C70.3849 29.0173 70.189 29.486 70.0351 30.0737C69.9232 30.4935 69.8322 30.9692 69.7622 31.5009C69.6923 32.0186 69.6573 32.5363 69.6573 33.0541V34.0615Z" fill="#1D1F2B"/>
<path d="M80.2994 40.6099C80.1455 40.9177 79.9496 41.2045 79.7117 41.4704C79.4878 41.7362 79.229 41.9601 78.9351 42.142C78.6553 42.3379 78.3614 42.4918 78.0536 42.6037C77.7458 42.7157 77.438 42.7717 77.1301 42.7717C76.6684 42.7717 76.2976 42.6597 76.0177 42.4358C75.7379 42.212 75.598 41.9111 75.598 41.5333C75.598 41.1835 75.7169 40.9107 75.9548 40.7148C76.2066 40.5189 76.6054 40.4 77.1511 40.358C78.3964 40.26 79.201 39.8683 79.5648 39.1826L80.1315 38.0913L76.4165 28.8984C76.2486 28.4926 76.1017 28.1708 75.9758 27.9329C75.8638 27.695 75.7379 27.5131 75.598 27.3872C75.4581 27.2473 75.2971 27.1563 75.1153 27.1144C74.9334 27.0724 74.7095 27.0444 74.4436 27.0304V26.1909H80.8031V27.0304C80.2574 27.0304 79.8726 27.0864 79.6487 27.1983C79.4389 27.2963 79.3339 27.4852 79.3339 27.765C79.3339 27.8769 79.3479 28.0099 79.3759 28.1638C79.4179 28.3037 79.4668 28.4506 79.5228 28.6045L81.6636 34.7331H81.7476L83.5526 30.6404C83.7345 30.2066 83.8884 29.8498 84.0143 29.57C84.1402 29.2762 84.2312 29.0313 84.2872 28.8354C84.3571 28.6255 84.4061 28.4576 84.4341 28.3317C84.4621 28.2058 84.476 28.0798 84.476 27.9539C84.476 27.5901 84.3711 27.3452 84.1612 27.2193C83.9653 27.0934 83.5596 27.0304 82.9439 27.0304V26.1909H88.0021V27.0304C87.7222 27.0304 87.4844 27.0724 87.2885 27.1563C87.0926 27.2263 86.8897 27.3802 86.6798 27.6181C86.4839 27.8559 86.2601 28.2127 86.0082 28.6885C85.7703 29.1502 85.4695 29.7659 85.1057 30.5355L80.2994 40.6099Z" fill="#1D1F2B"/>
<path d="M42.5918 40.1966H42.3561C42.3452 40.0175 42.3177 39.8695 42.2739 39.7526C42.2337 39.632 42.1752 39.537 42.0985 39.4676C42.0217 39.3945 41.9285 39.3451 41.8189 39.3195C41.7093 39.2903 41.5814 39.2757 41.4352 39.2757C41.2927 39.2757 41.1776 39.2793 41.0898 39.2867C41.0058 39.2903 40.94 39.2994 40.8925 39.3141C40.8487 39.325 40.8194 39.3415 40.8048 39.3634C40.7902 39.3853 40.7829 39.4127 40.7829 39.4456V42.318C40.7829 42.435 40.7902 42.5355 40.8048 42.6195C40.8231 42.7036 40.8578 42.773 40.909 42.8278C40.9601 42.879 41.035 42.9192 41.1337 42.9484C41.2324 42.974 41.3621 42.9886 41.5229 42.9923V43.2115H39.2261V42.9923C39.3905 42.9886 39.5221 42.974 39.6208 42.9484C39.7194 42.9192 39.7943 42.879 39.8455 42.8278C39.9003 42.773 39.935 42.7036 39.9497 42.6195C39.9679 42.5355 39.9771 42.435 39.9771 42.318V39.4456C39.9771 39.4127 39.9698 39.3853 39.9551 39.3634C39.9442 39.3415 39.9186 39.325 39.8784 39.3141C39.8382 39.2994 39.7797 39.2903 39.703 39.2867C39.6299 39.2793 39.5331 39.2757 39.4125 39.2757C39.2809 39.2757 39.1548 39.283 39.0342 39.2976C38.9136 39.3086 38.8076 39.3451 38.7163 39.4073C38.6249 39.4657 38.55 39.5571 38.4915 39.6813C38.4367 39.8019 38.4075 39.9737 38.4038 40.1966H38.19L38.2449 38.9906H42.537L42.5918 40.1966ZM47.5645 40.0486C47.5645 40.3519 47.4768 40.6059 47.3014 40.8106C47.126 41.0152 46.8464 41.1523 46.4627 41.2217L47.7344 42.6798C47.8222 42.7821 47.9263 42.8607 48.0469 42.9155C48.1675 42.9667 48.2899 42.9923 48.4142 42.9923V43.2115H47.115L45.7556 41.5451C45.6642 41.4355 45.5838 41.3624 45.5144 41.3258C45.4486 41.2856 45.3865 41.2655 45.328 41.2655V42.3399C45.328 42.4752 45.3371 42.5866 45.3554 42.6743C45.3737 42.7584 45.4102 42.8242 45.465 42.8717C45.5199 42.9192 45.5984 42.9521 45.7007 42.9703C45.8067 42.985 45.9474 42.9923 46.1228 42.9923V43.2115H43.9466V42.9923C44.0672 42.9923 44.1641 42.985 44.2371 42.9703C44.3139 42.9521 44.3724 42.921 44.4126 42.8772C44.4564 42.8296 44.4856 42.7657 44.5003 42.6853C44.5149 42.6012 44.5222 42.4953 44.5222 42.3674V39.8348C44.5222 39.7069 44.5167 39.6046 44.5057 39.5279C44.4948 39.4475 44.471 39.3853 44.4345 39.3415C44.3979 39.294 44.3449 39.2629 44.2755 39.2483C44.2097 39.23 44.1202 39.2172 44.0069 39.2099V38.9906H45.9036C46.4335 38.9906 46.8428 39.0838 47.1315 39.2702C47.4202 39.4566 47.5645 39.7161 47.5645 40.0486ZM45.328 40.9366H45.6843C46.0278 40.9366 46.2836 40.8709 46.4517 40.7393C46.6235 40.6041 46.7094 40.383 46.7094 40.076C46.7094 39.8421 46.6381 39.6539 46.4956 39.5114C46.3531 39.3689 46.1557 39.2976 45.9036 39.2976H45.4267C45.3609 39.2976 45.328 39.3287 45.328 39.3908V40.9366ZM52.0673 41.9343H50.516C50.3442 42.3217 50.2584 42.5903 50.2584 42.7401C50.2584 42.8497 50.2986 42.9192 50.379 42.9484C50.463 42.9776 50.5873 42.9923 50.7517 42.9923V43.2115H49.2497V42.9923C49.3374 42.9813 49.4124 42.9667 49.4745 42.9484C49.5403 42.9301 49.5969 42.9046 49.6444 42.8717C49.6956 42.8388 49.7394 42.7968 49.776 42.7456C49.8125 42.6908 49.8472 42.625 49.8801 42.5483L51.3218 38.9358H51.7275L53.0376 42.1371C53.1143 42.3235 53.1783 42.4697 53.2294 42.5757C53.2842 42.6816 53.3409 42.7639 53.3994 42.8223C53.4615 42.8772 53.5309 42.9155 53.6077 42.9374C53.6881 42.9594 53.7904 42.9758 53.9146 42.9868V43.2115H51.8426V42.9868C52.018 42.9795 52.1441 42.9612 52.2208 42.932C52.2975 42.9027 52.3359 42.8443 52.3359 42.7566C52.3359 42.7054 52.3231 42.6396 52.2975 42.5592C52.272 42.4788 52.2372 42.3801 52.1934 42.2632L52.0673 41.9343ZM50.6421 41.6054H51.9467L51.3163 39.9445H51.2944L50.6421 41.6054ZM56.7957 42.2687L57.5083 40.4433C57.5778 40.2642 57.6326 40.118 57.6728 40.0048C57.7166 39.8915 57.7495 39.7983 57.7715 39.7252C57.7934 39.6521 57.808 39.5936 57.8153 39.5498C57.8226 39.5059 57.8263 39.4639 57.8263 39.4237C57.8263 39.336 57.7934 39.2793 57.7276 39.2538C57.6618 39.2245 57.5303 39.2099 57.3329 39.2099V38.9906H58.8897V39.2099C58.5864 39.2099 58.3763 39.3579 58.2593 39.6539L56.8177 43.2663H56.412L55.1019 40.0651C55.0288 39.8933 54.963 39.7526 54.9046 39.643C54.8461 39.5333 54.784 39.4475 54.7182 39.3853C54.6524 39.3195 54.5793 39.2757 54.4989 39.2538C54.4222 39.2282 54.3308 39.2154 54.2248 39.2154V38.9906H56.2969V39.2154C56.2019 39.2191 56.1215 39.2245 56.0557 39.2318C55.9936 39.2392 55.9442 39.2519 55.9077 39.2702C55.8712 39.2848 55.8456 39.3068 55.831 39.336C55.8163 39.3616 55.809 39.3945 55.809 39.4347C55.809 39.4858 55.8182 39.5461 55.8364 39.6156C55.8547 39.685 55.8821 39.769 55.9187 39.8677L56.7957 42.2687ZM61.4754 40.8763C61.7092 40.8763 61.8974 40.869 62.04 40.8544C62.1825 40.8398 62.2921 40.8106 62.3689 40.7667C62.4493 40.7192 62.5059 40.6516 62.5388 40.5639C62.5717 40.4762 62.5973 40.3574 62.6155 40.2076H62.8184V41.8137H62.6155C62.5936 41.6675 62.5644 41.5506 62.5278 41.4629C62.4913 41.3752 62.4328 41.3094 62.3524 41.2655C62.272 41.218 62.1624 41.1888 62.0235 41.1778C61.8883 41.1632 61.7056 41.1559 61.4754 41.1559V42.2851C61.4754 42.4021 61.49 42.5007 61.5192 42.5811C61.5521 42.6615 61.6051 42.7273 61.6782 42.7785C61.7513 42.826 61.8481 42.8607 61.9687 42.8826C62.0893 42.9009 62.2373 42.91 62.4127 42.91C62.621 42.91 62.7964 42.8954 62.939 42.8662C63.0851 42.837 63.2057 42.7858 63.3008 42.7127C63.3958 42.6396 63.4725 42.5428 63.531 42.4222C63.5895 42.2979 63.6388 42.1426 63.679 41.9562H63.8983L63.8105 43.2115H60.094V42.9923C60.2146 42.9886 60.3132 42.9776 60.39 42.9594C60.4667 42.9411 60.5252 42.91 60.5654 42.8662C60.6056 42.8223 60.633 42.7602 60.6476 42.6798C60.6622 42.5994 60.6696 42.4953 60.6696 42.3674V39.8348C60.6696 39.7069 60.6622 39.6046 60.6476 39.5279C60.6367 39.4475 60.6129 39.3853 60.5764 39.3415C60.5398 39.294 60.4868 39.2629 60.4174 39.2483C60.3516 39.23 60.2639 39.2172 60.1543 39.2099V38.9906H63.6187L63.6571 40.0651H63.4213C63.3994 39.9116 63.3647 39.7855 63.3172 39.6868C63.2697 39.5845 63.2039 39.5041 63.1199 39.4456C63.0358 39.3835 62.9262 39.3415 62.791 39.3195C62.6594 39.294 62.4968 39.2812 62.3031 39.2812H61.6837C61.5886 39.2812 61.5302 39.294 61.5082 39.3195C61.4863 39.3415 61.4754 39.3963 61.4754 39.484V40.8763ZM69.1534 43.2115H65.3765V42.9923C65.4971 42.9886 65.5958 42.9776 65.6725 42.9594C65.7493 42.9411 65.8077 42.91 65.8479 42.8662C65.8881 42.8223 65.9155 42.7602 65.9302 42.6798C65.9448 42.5994 65.9521 42.4953 65.9521 42.3674V39.8348C65.9521 39.7069 65.9448 39.6046 65.9302 39.5279C65.9192 39.4475 65.8954 39.3853 65.8589 39.3415C65.8223 39.294 65.7694 39.2629 65.6999 39.2483C65.6341 39.23 65.5464 39.2172 65.4368 39.2099V38.9906H67.328V39.2099C67.2037 39.2136 67.1032 39.2245 67.0265 39.2428C66.9534 39.2611 66.8968 39.294 66.8566 39.3415C66.8164 39.389 66.7889 39.4548 66.7743 39.5388C66.7634 39.6229 66.7579 39.7343 66.7579 39.8732V42.17C66.7579 42.3235 66.7725 42.4496 66.8017 42.5483C66.8346 42.6433 66.8894 42.7182 66.9662 42.773C67.0429 42.8242 67.1453 42.8607 67.2732 42.8826C67.4011 42.9009 67.56 42.91 67.7501 42.91C67.962 42.91 68.1393 42.8973 68.2818 42.8717C68.4243 42.8461 68.5431 42.7986 68.6381 42.7291C68.7368 42.6561 68.8153 42.5592 68.8738 42.4386C68.9323 42.318 68.9816 42.1609 69.0218 41.9672H69.2411L69.1534 43.2115ZM70.715 41.8137H70.9288C70.98 42.1609 71.1188 42.435 71.3454 42.636C71.572 42.8333 71.8515 42.932 72.1841 42.932C72.3193 42.932 72.4436 42.9155 72.5568 42.8826C72.6701 42.8497 72.767 42.8041 72.8474 42.7456C72.9278 42.6835 72.9899 42.6122 73.0338 42.5318C73.0776 42.4478 73.0995 42.3546 73.0995 42.2522C73.0995 42.1645 73.0849 42.0896 73.0557 42.0275C73.0301 41.9617 72.9789 41.8996 72.9022 41.8411C72.8255 41.779 72.7195 41.7169 72.5843 41.6547C72.4527 41.5926 72.2809 41.5214 72.069 41.441C71.6414 41.2765 71.3253 41.0865 71.1207 40.8709C70.916 40.6516 70.8137 40.394 70.8137 40.0979C70.8137 39.9262 70.8466 39.769 70.9123 39.6265C70.9781 39.484 71.0695 39.3616 71.1864 39.2593C71.307 39.1569 71.4496 39.0784 71.614 39.0235C71.7821 38.9651 71.9667 38.9358 72.1677 38.9358C72.354 38.9358 72.5294 38.9651 72.6939 39.0235C72.8583 39.082 73.021 39.1697 73.1818 39.2867L73.2804 39.0126H73.412L73.4723 40.1966H73.2585C73.1708 39.897 73.0338 39.6685 72.8474 39.5114C72.661 39.3506 72.4454 39.2702 72.2005 39.2702C71.974 39.2702 71.7894 39.3269 71.6469 39.4401C71.508 39.5498 71.4386 39.6923 71.4386 39.8677C71.4386 39.9445 71.4514 40.0139 71.477 40.076C71.5025 40.1345 71.55 40.1911 71.6195 40.246C71.6889 40.3008 71.7839 40.3574 71.9045 40.4159C72.0251 40.4707 72.1804 40.5328 72.3705 40.6023C72.6263 40.7009 72.8437 40.8014 73.0228 40.9038C73.2055 41.0024 73.3535 41.1102 73.4668 41.2272C73.5837 41.3405 73.6696 41.4611 73.7244 41.589C73.7793 41.7169 73.8067 41.8576 73.8067 42.011C73.8067 42.1974 73.7665 42.3674 73.6861 42.5208C73.6057 42.6743 73.4924 42.8059 73.3462 42.9155C73.2037 43.0252 73.0319 43.111 72.8309 43.1732C72.6336 43.2353 72.4143 43.2663 72.1731 43.2663C71.9539 43.2663 71.7565 43.2371 71.5811 43.1786C71.4057 43.1165 71.2248 43.0178 71.0384 42.8826L70.9288 43.2115H70.7972L70.715 41.8137Z" fill="#1D1F2B"/>
<path d="M70.6135 12.0835L71.0672 15.9865L70.4209 16.5081L69.1507 13.2642L67.4187 14.6622L67.6628 16.0661L67.1781 16.4573L66.3275 14.7424L64.8307 13.5491L65.3154 13.1579L66.6365 13.6925L68.3686 12.2945L65.4655 10.3685L66.1117 9.8469L69.8311 11.1141L71.5912 9.69344C71.7197 9.58968 71.8842 9.54124 72.0485 9.55877C72.2128 9.5763 72.3634 9.65837 72.4671 9.78692C72.5709 9.91548 72.6193 10.08 72.6018 10.2442C72.5842 10.4085 72.5022 10.5591 72.3736 10.6628L70.6135 12.0835Z" fill="#1D1F2B"/>
<path d="M65.8291 15.7364C42.5513 40.9102 0.629689 48.5993 16.64 25.3214L17.5458 27.3586L17.0463 27.8586C14.1613 30.7459 15.9466 35.688 20.0107 36.0651H20.7034C23.0849 36.0651 25.4556 35.7462 27.7524 35.1171C32.2621 34.2781 36.6418 32.8499 40.7792 30.8693L44.4472 29.1133L54.9802 22.7935L65.8291 15.7364Z" fill="#1D1F2B" stroke="white" stroke-width="0.299815"/>
<path d="M33.7008 8.75798C32.6175 4.92938 29.4449 3.30075 25.808 3.91977C22.4589 4.48983 20.7094 8.66483 19.8945 11.1966C20.1368 7.84322 19.5172 3.17983 15.5164 1.00228C9.40326 -2.32511 5.53421 3.63327 5.14729 4.40703C4.76037 5.18087 4.75974 5.32899 5.84369 5.25824C6.16655 5.2371 8.98005 4.44522 11.741 4.94453L13.0401 3.74636L13.6422 5.43482C15.9298 6.23642 17.7652 8.29066 18.0959 11.3708C16.24 9.08924 13.3774 7.62027 10.1541 7.62027C4.5494 7.62027 0.00622559 12.04 0.00622559 17.4918C0.00622559 17.9307 0.0153154 17.6158 0.0153154 17.6158C0.031029 17.8224 0.166391 18.0008 0.361083 18.0715C0.555705 18.1417 0.774003 18.0915 0.918455 17.9428C0.918455 17.9428 1.03148 17.7668 1.53931 17.3025C2.434 16.484 3.41817 15.7628 4.47253 15.148L5.43676 13.3482L6.73774 14.0392C8.68981 13.2612 10.819 12.8319 13.0491 12.8319C14.5199 12.8319 15.9479 13.0187 17.3099 13.3687C14.1693 13.1608 9.43581 14.7979 7.56231 18.7945C5.24087 23.7468 7.52539 27.6776 7.85551 27.9853C8.12638 28.2374 8.45403 28.0409 8.54289 27.6014C8.73688 26.6408 9.27015 24.8453 10.2495 22.8315L9.85408 21.2344L10.9429 21.5131C12.3074 19.1069 14.3054 16.5806 17.1316 14.8789C15.3025 18.9085 13.7443 24.4954 14.8949 31.6987C15.3149 34.3279 17.7187 36.0776 20.3812 36.0776H22.2675C22.2675 36.0776 15.787 29.4615 19.3369 15.8945C20.1084 16.8913 21.0901 18.338 21.9093 20.1002L22.9448 20.2308L22.4823 21.4701C23.0494 22.9874 23.4575 24.6826 23.5143 26.4968C23.5288 26.9599 23.8081 27.3027 23.9507 26.9992C26.1368 22.3406 25.4494 17.5726 22.385 14.7905C24.3171 15.4276 25.8962 16.9813 27.1264 18.7586L28.5936 19.0736L28.3203 20.7276C29.3499 22.6851 29.9816 24.6233 30.2072 25.7344C30.2959 26.1721 30.5281 26.4575 30.8081 25.9593C32.476 22.9911 32.6912 17.2951 29.677 14.1769C27.3398 11.76 23.2163 11.6009 20.6767 12.2708C22.3439 9.46749 26.8049 9.25891 26.8049 9.25891C26.8049 9.25891 27.5104 7.63408 27.6652 7.4019C27.8199 7.16979 28.6711 8.98467 28.6711 8.98467L33.1629 10.8194C33.1629 10.8194 33.7395 11.2137 33.852 10.5438C33.9197 10.1393 33.9608 9.51604 33.7008 8.75798Z" fill="#1D1F2B"/>
</svg>
