<svg width="20" height="16" viewBox="0 0 20 16" fill="none" xmlns="http://www.w3.org/2000/svg">
<path d="M2.36143 2.73044C3.63918 1.34523 5.57264 0.643066 8.10718 0.643066H9.0179V3.21039L8.28568 3.35702C7.03799 3.60656 6.17007 4.09744 5.70561 4.81782C5.46325 5.2059 5.32581 5.65026 5.30671 6.1074H8.10718C8.34872 6.1074 8.58036 6.20335 8.75116 6.37415C8.92195 6.54494 9.0179 6.77658 9.0179 7.01812V13.3932C9.0179 14.3977 8.20098 15.2146 7.19646 15.2146H1.73212C1.49058 15.2146 1.25894 15.1187 1.08814 14.9479C0.917351 14.7771 0.8214 14.5454 0.8214 14.3039V9.75029L0.824132 7.09189C0.815936 6.9908 0.642899 4.5956 2.36143 2.73044ZM17.2144 15.2146H11.7501C11.5085 15.2146 11.2769 15.1187 11.1061 14.9479C10.9353 14.7771 10.8393 14.5454 10.8393 14.3039V9.75029L10.8421 7.09189C10.8339 6.9908 10.6608 4.5956 12.3794 2.73044C13.6571 1.34523 15.5906 0.643066 18.1251 0.643066H19.0359V3.21039L18.3036 3.35702C17.0559 3.60656 16.188 4.09744 15.7236 4.81782C15.4812 5.2059 15.3438 5.65026 15.3247 6.1074H18.1251C18.3667 6.1074 18.5983 6.20335 18.7691 6.37415C18.9399 6.54494 19.0359 6.77658 19.0359 7.01812V13.3932C19.0359 14.3977 18.2189 15.2146 17.2144 15.2146Z" fill="#166EF7"/>
</svg>
