<svg width="63" height="13" viewBox="0 0 63 13" fill="none" xmlns="http://www.w3.org/2000/svg">
<path d="M6.28083 1.84215C6.46748 1.2677 7.28018 1.2677 7.46683 1.84215L8.13372 3.89464C8.21719 4.15154 8.4566 4.32548 8.72672 4.32548H10.8848C11.4888 4.32548 11.74 5.0984 11.2513 5.45343L9.50537 6.72193C9.28684 6.88071 9.1954 7.16214 9.27887 7.41905L9.94576 9.47153C10.1324 10.046 9.47493 10.5237 8.98627 10.1686L7.24032 8.90014C7.02179 8.74136 6.72587 8.74136 6.50734 8.90014L4.76139 10.1686C4.27273 10.5237 3.61524 10.046 3.80189 9.47153L4.46879 7.41905C4.55226 7.16214 4.46082 6.88071 4.24228 6.72193L2.49633 5.45343C2.00767 5.0984 2.25881 4.32548 2.86283 4.32548H5.02094C5.29106 4.32548 5.53046 4.15154 5.61394 3.89464L6.28083 1.84215Z" fill="#F2A936"/>
<path d="M18.7513 1.84215C18.9379 1.2677 19.7506 1.2677 19.9373 1.84215L20.6042 3.89464C20.6877 4.15154 20.9271 4.32548 21.1972 4.32548H23.3553C23.9593 4.32548 24.2104 5.0984 23.7218 5.45343L21.9758 6.72193C21.7573 6.88071 21.6659 7.16214 21.7493 7.41905L22.4162 9.47153C22.6029 10.046 21.9454 10.5237 21.4567 10.1686L19.7108 8.90014C19.4922 8.74136 19.1963 8.74136 18.9778 8.90014L17.2318 10.1686C16.7432 10.5237 16.0857 10.046 16.2724 9.47153L16.9392 7.41905C17.0227 7.16214 16.9313 6.88071 16.7127 6.72193L14.9668 5.45343C14.4781 5.0984 14.7293 4.32548 15.3333 4.32548H17.4914C17.7615 4.32548 18.0009 4.15154 18.0844 3.89464L18.7513 1.84215Z" fill="#F2A936"/>
<path d="M31.2217 1.84215C31.4084 1.2677 32.2211 1.2677 32.4077 1.84215L33.0746 3.89464C33.1581 4.15154 33.3975 4.32548 33.6676 4.32548H35.8257C36.4298 4.32548 36.6809 5.0984 36.1922 5.45343L34.4463 6.72193C34.2278 6.88071 34.1363 7.16214 34.2198 7.41905L34.8867 9.47153C35.0733 10.046 34.4158 10.5237 33.9272 10.1686L32.1812 8.90014C31.9627 8.74136 31.6668 8.74136 31.4483 8.90014L29.7023 10.1686C29.2136 10.5237 28.5562 10.046 28.7428 9.47153L29.4097 7.41905C29.4932 7.16214 29.4017 6.88071 29.1832 6.72193L27.4373 5.45343C26.9486 5.0984 27.1997 4.32548 27.8037 4.32548H29.9619C30.232 4.32548 30.4714 4.15154 30.5549 3.89464L31.2217 1.84215Z" fill="#F2A936"/>
<path d="M43.6917 1.84215C43.8784 1.2677 44.6911 1.2677 44.8777 1.84215L45.5446 3.89464C45.6281 4.15154 45.8675 4.32548 46.1376 4.32548H48.2957C48.8997 4.32548 49.1509 5.0984 48.6622 5.45343L46.9163 6.72193C46.6977 6.88071 46.6063 7.16214 46.6898 7.41905L47.3567 9.47153C47.5433 10.046 46.8858 10.5237 46.3972 10.1686L44.6512 8.90014C44.4327 8.74136 44.1368 8.74136 43.9182 8.90014L42.1723 10.1686C41.6836 10.5237 41.0261 10.046 41.2128 9.47153L41.8797 7.41905C41.9631 7.16214 41.8717 6.88071 41.6532 6.72193L39.9072 5.45343C39.4186 5.0984 39.6697 4.32548 40.2737 4.32548H42.4318C42.702 4.32548 42.9414 4.15154 43.0248 3.89464L43.6917 1.84215Z" fill="#F2A936"/>
<path d="M56.1619 1.84215C56.3486 1.2677 57.1613 1.2677 57.3479 1.84215L58.0148 3.89464C58.0983 4.15154 58.3377 4.32548 58.6078 4.32548H60.7659C61.3699 4.32548 61.6211 5.0984 61.1324 5.45343L59.3865 6.72193C59.1679 6.88071 59.0765 7.16214 59.16 7.41905L59.8269 9.47153C60.0135 10.046 59.356 10.5237 58.8674 10.1686L57.1214 8.90014C56.9029 8.74136 56.607 8.74136 56.3884 8.90014L54.6425 10.1686C54.1538 10.5237 53.4963 10.046 53.683 9.47153L54.3499 7.41905C54.4334 7.16214 54.3419 6.88071 54.1234 6.72193L52.3774 5.45343C51.8888 5.0984 52.1399 4.32548 52.7439 4.32548H54.902C55.1722 4.32548 55.4116 4.15154 55.495 3.89464L56.1619 1.84215Z" fill="#DED9D9"/>
</svg>
