<svg width="66" height="66" viewBox="0 0 66 66" fill="none" xmlns="http://www.w3.org/2000/svg">
<rect width="66" height="66" rx="7.96976" fill="#7401BA" fill-opacity="0.7"/>
<path d="M19.9582 39.3857V23.3375C19.9582 21.8453 20.3456 20.6555 21.1204 19.768C21.8952 18.8806 22.9156 18.2049 24.1814 17.7409C25.4484 17.2769 26.8916 16.9672 28.511 16.8118C30.1305 16.6564 31.7843 16.5792 33.4725 16.5803C35.3307 16.5803 37.0836 16.658 38.7312 16.8135C40.3788 16.9689 41.8147 17.2786 43.0389 17.7426C44.2631 18.2066 45.2271 18.8823 45.931 19.7697C46.6348 20.6571 46.9868 21.8464 46.9868 23.3375V39.3857C46.9868 41.0468 46.4169 42.4478 45.2772 43.5886C44.1375 44.7295 42.7365 45.2993 41.0743 45.2982L43.6082 47.8321V48.6768H40.2296L36.851 45.2982H30.0939L26.7153 48.6768H23.3368V47.8321L25.8707 45.2982C24.2096 45.2982 22.8086 44.7283 21.6677 43.5886C20.5269 42.4489 19.9571 41.0479 19.9582 39.3857ZM23.3368 30.0946H31.7832V25.0268H23.3368V30.0946ZM35.1618 30.0946H43.6082V25.0268H35.1618V30.0946ZM27.56 40.2303C28.292 40.2303 28.8973 39.991 29.376 39.5124C29.8546 39.0338 30.0939 38.4284 30.0939 37.6964C30.0939 36.9644 29.8546 36.3591 29.376 35.8804C28.8973 35.4018 28.292 35.1625 27.56 35.1625C26.828 35.1625 26.2226 35.4018 25.744 35.8804C25.2654 36.3591 25.026 36.9644 25.026 37.6964C25.026 38.4284 25.2654 39.0338 25.744 39.5124C26.2226 39.991 26.828 40.2303 27.56 40.2303ZM39.385 40.2303C40.117 40.2303 40.7223 39.991 41.201 39.5124C41.6796 39.0338 41.9189 38.4284 41.9189 37.6964C41.9189 36.9644 41.6796 36.3591 41.201 35.8804C40.7223 35.4018 40.117 35.1625 39.385 35.1625C38.653 35.1625 38.0476 35.4018 37.569 35.8804C37.0904 36.3591 36.851 36.9644 36.851 37.6964C36.851 38.4284 37.0904 39.0338 37.569 39.5124C38.0476 39.991 38.653 40.2303 39.385 40.2303Z" fill="white"/>
</svg>
