<svg width="108" height="55" viewBox="0 0 108 55" fill="none" xmlns="http://www.w3.org/2000/svg">
<path d="M44.8634 29.4557L44.8648 29.4562C45.3876 29.6424 45.9691 29.7347 46.6084 29.7347C47.4257 29.7347 48.1153 29.5748 48.6723 29.2493L48.6728 29.249C48.8615 29.1372 49.0183 29.0466 49.1434 28.9771C49.2657 28.9092 49.3711 28.8635 49.4602 28.838L49.4603 28.8381L49.4641 28.8369C49.5621 28.8042 49.6594 28.7848 49.7563 28.7783L49.7563 28.7785L49.7623 28.7777C49.862 28.7644 49.9873 28.7575 50.139 28.7575H50.231V28.6655V27.268C50.231 26.8794 50.2983 26.6406 50.4068 26.5207L50.4068 26.5207L50.4082 26.5191C50.5149 26.3955 50.719 26.3198 51.0531 26.3198H51.1451V26.2278V25.8075V25.7155H51.0531H47.6487H47.5567V25.8075V26.2278V26.3121L47.6406 26.3194C48.0334 26.3539 48.2921 26.4459 48.4376 26.5793L48.4376 26.5793L48.4392 26.5807C48.5798 26.7038 48.66 26.9078 48.66 27.2155C48.66 27.7342 48.4992 28.1314 48.1855 28.419C47.8782 28.7002 47.4409 28.8467 46.8606 28.8467C46.0584 28.8467 45.4573 28.5663 45.043 28.0116C44.6252 27.4523 44.4098 26.6378 44.4098 25.5553C44.4098 24.4522 44.6286 23.6086 45.0545 23.0136C45.4846 22.4156 46.083 22.1168 46.8606 22.1168C47.4794 22.1168 47.9859 22.293 48.387 22.6407L48.3876 22.6412C48.7966 22.9898 49.0716 23.4817 49.2084 24.1244L49.2239 24.1973H49.2984H49.8237H49.9157V24.1053V21.4469V21.3549H49.8237H49.4455H49.3774L49.3575 21.4199L49.1917 21.961C48.7695 21.7218 48.3726 21.5452 48.0011 21.4324C47.5997 21.3105 47.1774 21.2498 46.7345 21.2498C46.0939 21.2498 45.5078 21.3566 44.9772 21.5716C44.4476 21.7792 43.9919 22.0768 43.6112 22.4647C43.2306 22.8524 42.9335 23.3184 42.7192 23.8613L42.7191 23.8613L42.7189 23.8619C42.5112 24.3992 42.408 24.9921 42.408 25.6394C42.408 26.2652 42.504 26.8334 42.6977 27.3428L42.6977 27.3428L42.6983 27.3442C42.8987 27.8454 43.1786 28.2764 43.5382 28.636L43.5382 28.636L43.5396 28.6373C43.9066 28.9899 44.3484 29.2625 44.8634 29.4557ZM57.7341 25.5058L57.7348 25.5053C58.3503 25.0877 58.6577 24.4802 58.6577 23.6955C58.6577 22.9269 58.3729 22.3363 57.7985 21.9386C57.23 21.5451 56.4026 21.3549 55.3294 21.3549H51.6938H51.6018V21.4469V21.8672V21.9532L51.6877 21.959C51.8949 21.9728 52.056 21.9967 52.1736 22.0294L52.1735 22.0295L52.1792 22.0307C52.295 22.0551 52.3757 22.1048 52.43 22.1754L52.4299 22.1755L52.4322 22.1782C52.4875 22.2446 52.5287 22.3452 52.5484 22.489L52.5482 22.4891L52.5491 22.4938C52.5756 22.6328 52.5895 22.8225 52.5895 23.065V27.9195C52.5895 28.1619 52.5756 28.3554 52.549 28.502C52.523 28.6452 52.4758 28.7462 52.4141 28.8135C52.3529 28.8803 52.2593 28.9327 52.1243 28.9648C51.9856 28.9979 51.8033 29.0185 51.5755 29.0254L51.4863 29.0281V29.1174V29.5377V29.6297H51.5782H55.7497H55.8417V29.5377V29.1174V29.0254H55.7497C55.4224 29.0254 55.1646 29.0114 54.9747 28.9843C54.7891 28.9578 54.6525 28.9026 54.5573 28.8253C54.4638 28.7493 54.3999 28.6428 54.3687 28.4993C54.3355 28.3398 54.3181 28.1297 54.3181 27.867V26.1096H55.1193C56.2485 26.1096 57.1241 25.9124 57.7341 25.5058ZM54.9091 25.2952H54.3181V22.2139C54.3181 22.1699 54.3295 22.1535 54.3366 22.1468C54.3446 22.1392 54.3651 22.1273 54.4153 22.1273H55.2244C55.7778 22.1273 56.1651 22.2673 56.4073 22.5286C56.653 22.7937 56.782 23.1747 56.782 23.685C56.782 24.2581 56.6288 24.6584 56.3409 24.9079C56.0502 25.1599 55.5795 25.2952 54.9091 25.2952Z" fill="#16B267" stroke="#16B267" stroke-width="0.183986"/>
<path d="M39.1328 36.3694C39.1328 35.6825 39.1156 35.1415 39.0813 34.7465C39.047 34.3344 38.9525 34.0253 38.7979 33.8192C38.6434 33.5959 38.4115 33.45 38.1024 33.3813C37.8105 33.2954 37.4069 33.2267 36.8917 33.1752V32.1448H42.7134V39.95C42.7134 40.9975 42.722 41.8218 42.7392 42.4229C42.7735 43.0068 42.825 43.4447 42.8937 43.7366C42.9452 43.9599 43.0053 44.1402 43.074 44.2776C43.1427 44.3978 43.2544 44.5008 43.4089 44.5867C43.5635 44.6554 43.7695 44.7069 44.0271 44.7412C44.3019 44.7584 44.654 44.767 45.0833 44.767V45.7716L39.9571 46.0807L39.6738 43.7881H39.5707C39.1242 44.5094 38.4974 45.0675 37.6903 45.4625C36.8831 45.8575 35.9816 46.055 34.9855 46.055C33.148 46.055 31.7484 45.4024 30.7867 44.0973C30.0483 43.1012 29.6791 41.6844 29.6791 39.8469V36.3694C29.6791 35.6653 29.6619 35.1157 29.6275 34.7208C29.5932 34.3086 29.4987 33.9995 29.3442 33.7934C29.2068 33.5873 28.9921 33.45 28.7002 33.3813C28.4082 33.2954 28.0047 33.2267 27.4895 33.1752V32.1448H33.2596V39.4348C33.2596 41.1692 33.4743 42.4315 33.9036 43.2214C34.3329 43.9942 35.0199 44.3806 35.9644 44.3806C36.9776 44.3806 37.759 43.9169 38.3085 42.9896C38.858 42.0966 39.1328 40.7829 39.1328 39.0484V36.3694Z" fill="white"/>
<path d="M55.361 35.3905C55.7216 34.9268 55.962 34.6006 56.0822 34.4116C56.2024 34.2227 56.2625 34.0338 56.2625 33.8449C56.2625 33.6045 56.1595 33.4328 55.9534 33.3297C55.7645 33.2267 55.4382 33.1752 54.9746 33.1752V32.1448H60.8993V33.1752C60.573 33.1924 60.281 33.2267 60.0234 33.2782C59.7658 33.3297 59.5082 33.4328 59.2507 33.5873C58.9931 33.7247 58.7269 33.9222 58.4521 34.1798C58.1773 34.4374 57.8596 34.7723 57.499 35.1844L54.8715 38.2241L58.9415 43.4533C59.3365 43.9685 59.7229 44.3205 60.1007 44.5094C60.4785 44.6811 60.9508 44.767 61.5175 44.767V45.7974H53.3259V44.767C53.824 44.767 54.1674 44.7241 54.3563 44.6382C54.5624 44.5523 54.6654 44.3892 54.6654 44.1488C54.6654 43.9599 54.6053 43.7624 54.4851 43.5563C54.3649 43.3331 54.1846 43.0497 53.9442 42.7062L52.4501 40.6455L51.3167 42.0107C51.0248 42.3714 50.7929 42.6633 50.6212 42.8866C50.4495 43.1098 50.3207 43.2901 50.2348 43.4275C50.1489 43.5649 50.0888 43.6765 50.0545 43.7624C50.0373 43.8311 50.0287 43.8998 50.0287 43.9685C50.0287 44.2604 50.1489 44.4665 50.3894 44.5867C50.6469 44.7069 51.0505 44.767 51.6001 44.767V45.7974H45.1344V44.767C45.6839 44.767 46.2163 44.6897 46.7315 44.5352C47.2467 44.3634 47.6503 44.1058 47.9422 43.7624L51.5228 39.5636L47.2209 34.1025C46.8946 33.6904 46.6027 33.4328 46.3451 33.3297C46.1047 33.2267 45.7698 33.1752 45.3405 33.1752V32.1448H53.1971V33.1752C52.3213 33.1752 51.8834 33.4156 51.8834 33.8965C51.8834 34.0682 51.9779 34.2914 52.1668 34.5662L53.9957 37.1422L55.361 35.3905Z" fill="white"/>
<path d="M73.0691 36.3694C73.0691 35.6825 73.0519 35.1415 73.0175 34.7465C72.9832 34.3344 72.8887 34.0253 72.7342 33.8192C72.5796 33.5959 72.3478 33.45 72.0387 33.3813C71.7467 33.2954 71.3432 33.2267 70.828 33.1752V32.1448H76.6496V39.95C76.6496 40.9975 76.6582 41.8218 76.6754 42.4229C76.7097 43.0068 76.7613 43.4447 76.83 43.7366C76.8815 43.9599 76.9416 44.1402 77.0103 44.2776C77.079 44.3978 77.1906 44.5008 77.3451 44.5867C77.4997 44.6554 77.7058 44.7069 77.9634 44.7412C78.2381 44.7584 78.5902 44.767 79.0195 44.767V45.7716L73.8934 46.0807L73.61 43.7881H73.507C73.0605 44.5094 72.4337 45.0675 71.6265 45.4625C70.8194 45.8575 69.9178 46.055 68.9218 46.055C67.0842 46.055 65.6846 45.4024 64.7229 44.0973C63.9845 43.1012 63.6153 41.6844 63.6153 39.8469V36.3694C63.6153 35.6653 63.5981 35.1157 63.5638 34.7208C63.5294 34.3086 63.435 33.9995 63.2804 33.7934C63.143 33.5873 62.9284 33.45 62.6364 33.3813C62.3445 33.2954 61.9409 33.2267 61.4257 33.1752V32.1448H67.1959V39.4348C67.1959 41.1692 67.4105 42.4315 67.8399 43.2214C68.2692 43.9942 68.9561 44.3806 69.9006 44.3806C70.9138 44.3806 71.6952 43.9169 72.2447 42.9896C72.7943 42.0966 73.0691 40.7829 73.0691 39.0484V36.3694Z" fill="white"/>
<path d="M85.4848 41.8046C85.4848 42.4744 85.5105 43.0068 85.5621 43.4017C85.6307 43.7796 85.7595 44.0715 85.9484 44.2776C86.1374 44.4836 86.4121 44.621 86.7728 44.6897C87.1334 44.7412 87.6142 44.767 88.2153 44.767V45.7974H79.6116V44.767C80.1268 44.7327 80.5389 44.6811 80.848 44.6124C81.1572 44.5438 81.389 44.4064 81.5436 44.2003C81.6981 43.9942 81.7926 43.7023 81.8269 43.3245C81.8784 42.9295 81.9042 42.4057 81.9042 41.7531V38.6105C81.9042 37.5457 81.8784 36.6957 81.8269 36.0603C81.7754 35.4249 81.6638 34.9354 81.492 34.592C81.3203 34.2485 81.0713 34.0253 80.745 33.9222C80.4359 33.802 80.0237 33.7419 79.5086 33.7419V32.8403L84.6605 31.8872L85.0726 34.8496H85.1757C85.6393 33.9394 86.249 33.2181 87.0046 32.6858C87.7602 32.1534 88.5588 31.8872 89.4002 31.8872C90.0528 31.8872 90.5852 32.0504 90.9973 32.3766C91.4095 32.7029 91.6156 33.1151 91.6156 33.6131C91.6156 34.1626 91.4524 34.6263 91.1261 35.0041C90.817 35.3819 90.3877 35.5708 89.8381 35.5708C89.5805 35.5708 89.3487 35.5193 89.1426 35.4163C88.9366 35.3132 88.7477 35.2016 88.5759 35.0814C88.4214 34.944 88.2582 34.8238 88.0865 34.7208C87.9319 34.6006 87.7688 34.5404 87.5971 34.5404C87.2708 34.5404 86.9617 34.7551 86.6697 35.1844C86.3778 35.6138 86.1374 36.1891 85.9484 36.9103C85.8111 37.4255 85.6994 38.0094 85.6136 38.662C85.5277 39.2974 85.4848 39.9328 85.4848 40.5682V41.8046Z" fill="white"/>
<path d="M98.5461 49.8416C98.3572 50.2194 98.1168 50.5715 97.8248 50.8978C97.55 51.2241 97.2323 51.4988 96.8717 51.7221C96.5283 51.9625 96.1676 52.1514 95.7898 52.2888C95.412 52.4262 95.0342 52.4949 94.6564 52.4949C94.0897 52.4949 93.6346 52.3575 93.2911 52.0827C92.9477 51.808 92.7759 51.4387 92.7759 50.9751C92.7759 50.5457 92.9219 50.2109 93.2139 49.9704C93.523 49.73 94.0124 49.584 94.6822 49.5325C96.2105 49.4123 97.198 48.9315 97.6445 48.09L98.34 46.7505L93.7806 35.4678C93.5745 34.9698 93.3942 34.5748 93.2396 34.2828C93.1022 33.9909 92.9477 33.7677 92.7759 33.6131C92.6042 33.4414 92.4067 33.3297 92.1835 33.2782C91.9602 33.2267 91.6855 33.1924 91.3592 33.1752V32.1448H99.1643V33.1752C98.4946 33.1752 98.0223 33.2439 97.7475 33.3813C97.4899 33.5015 97.3612 33.7333 97.3612 34.0768C97.3612 34.2142 97.3783 34.3773 97.4127 34.5662C97.4642 34.7379 97.5243 34.9183 97.593 35.1072L100.22 42.629H100.323L102.539 37.6058C102.762 37.0735 102.951 36.6356 103.106 36.2921C103.26 35.9315 103.372 35.6309 103.44 35.3905C103.526 35.1329 103.586 34.9268 103.621 34.7723C103.655 34.6177 103.672 34.4632 103.672 34.3086C103.672 33.8621 103.543 33.5616 103.286 33.407C103.045 33.2525 102.547 33.1752 101.792 33.1752V32.1448H108V33.1752C107.656 33.1752 107.364 33.2267 107.124 33.3297C106.884 33.4156 106.635 33.6045 106.377 33.8965C106.137 34.1884 105.862 34.6263 105.553 35.2102C105.261 35.7769 104.892 36.5325 104.445 37.477L98.5461 49.8416Z" fill="white"/>
<path d="M52.2664 49.1977H51.9771C51.9637 48.9779 51.93 48.7962 51.8762 48.6527C51.8269 48.5047 51.7551 48.3881 51.6609 48.3029C51.5667 48.2132 51.4524 48.1526 51.3178 48.1212C51.1833 48.0853 51.0263 48.0674 50.8469 48.0674C50.6719 48.0674 50.5307 48.0719 50.423 48.0808C50.3198 48.0853 50.2391 48.0965 50.1808 48.1145C50.127 48.1279 50.0911 48.1481 50.0732 48.175C50.0552 48.2019 50.0463 48.2356 50.0463 48.2759V51.8013C50.0463 51.9448 50.0552 52.0682 50.0732 52.1713C50.0956 52.2745 50.1382 52.3597 50.201 52.427C50.2638 52.4898 50.3557 52.5391 50.4768 52.575C50.5979 52.6064 50.7572 52.6244 50.9545 52.6288V52.8979H48.1356V52.6288C48.3374 52.6244 48.4989 52.6064 48.62 52.575C48.7411 52.5391 48.833 52.4898 48.8958 52.427C48.9631 52.3597 49.0057 52.2745 49.0236 52.1713C49.0461 52.0682 49.0573 51.9448 49.0573 51.8013V48.2759C49.0573 48.2356 49.0483 48.2019 49.0304 48.175C49.0169 48.1481 48.9855 48.1279 48.9362 48.1145C48.8868 48.0965 48.8151 48.0853 48.7209 48.0808C48.6312 48.0719 48.5123 48.0674 48.3643 48.0674C48.2028 48.0674 48.0481 48.0764 47.9001 48.0943C47.7521 48.1077 47.622 48.1526 47.5099 48.2288C47.3977 48.3006 47.3058 48.4127 47.234 48.5652C47.1667 48.7133 47.1309 48.9241 47.1264 49.1977H46.864L46.9313 47.7175H52.1992L52.2664 49.1977ZM58.3696 49.016C58.3696 49.3883 58.2619 49.7 58.0466 49.9512C57.8313 50.2023 57.4882 50.3705 57.0173 50.4558L58.5781 52.2454C58.6858 52.3709 58.8136 52.4674 58.9616 52.5346C59.1096 52.5974 59.2599 52.6288 59.4124 52.6288V52.8979H57.8179L56.1494 50.8527C56.0372 50.7181 55.9386 50.6284 55.8534 50.5836C55.7726 50.5342 55.6964 50.5096 55.6246 50.5096V51.8282C55.6246 51.9942 55.6358 52.131 55.6582 52.2386C55.6807 52.3418 55.7255 52.4225 55.7928 52.4808C55.8601 52.5391 55.9565 52.5795 56.0821 52.6019C56.2122 52.6199 56.3848 52.6288 56.6001 52.6288V52.8979H53.9292V52.6288C54.0772 52.6288 54.1961 52.6199 54.2858 52.6019C54.38 52.5795 54.4517 52.5414 54.5011 52.4876C54.5549 52.4292 54.5908 52.3508 54.6087 52.2521C54.6266 52.1489 54.6356 52.0188 54.6356 51.8619V48.7536C54.6356 48.5966 54.6289 48.4711 54.6154 48.3769C54.602 48.2782 54.5728 48.2019 54.528 48.1481C54.4831 48.0898 54.4181 48.0517 54.3329 48.0337C54.2521 48.0113 54.1422 47.9956 54.0032 47.9866V47.7175H56.331C56.9814 47.7175 57.4837 47.8319 57.8381 48.0607C58.1924 48.2894 58.3696 48.6078 58.3696 49.016ZM55.6246 50.1059H56.0619C56.4835 50.1059 56.7975 50.0252 57.0038 49.8637C57.2146 49.6978 57.32 49.4264 57.32 49.0496C57.32 48.7626 57.2326 48.5316 57.0576 48.3567C56.8827 48.1818 56.6405 48.0943 56.331 48.0943H55.7457C55.665 48.0943 55.6246 48.1324 55.6246 48.2087V50.1059ZM63.896 51.3304H61.992C61.7812 51.8058 61.6758 52.1355 61.6758 52.3194C61.6758 52.4539 61.7251 52.5391 61.8238 52.575C61.927 52.6109 62.0795 52.6288 62.2813 52.6288V52.8979H60.4379V52.6288C60.5455 52.6154 60.6375 52.5974 60.7137 52.575C60.7945 52.5526 60.864 52.5212 60.9223 52.4808C60.9851 52.4405 61.0389 52.3889 61.0837 52.3261C61.1286 52.2588 61.1712 52.1781 61.2116 52.0839L62.981 47.6503H63.4788L65.0868 51.5793C65.181 51.808 65.2595 51.9875 65.3223 52.1175C65.3895 52.2476 65.4591 52.3485 65.5308 52.4203C65.6071 52.4876 65.6923 52.5346 65.7865 52.5616C65.8852 52.5885 66.0107 52.6087 66.1632 52.6221V52.8979H63.6201V52.6221C63.8354 52.6131 63.9902 52.5907 64.0844 52.5548C64.1785 52.5189 64.2256 52.4472 64.2256 52.3395C64.2256 52.2767 64.2099 52.196 64.1785 52.0973C64.1471 51.9987 64.1045 51.8776 64.0507 51.734L63.896 51.3304ZM62.1467 50.9267H63.748L62.9743 48.8882H62.9474L62.1467 50.9267ZM69.6993 51.7408L70.5739 49.5004C70.6591 49.2806 70.7264 49.1012 70.7757 48.9622C70.8296 48.8231 70.8699 48.7088 70.8968 48.6191C70.9237 48.5294 70.9417 48.4576 70.9507 48.4038C70.9596 48.3499 70.9641 48.2984 70.9641 48.249C70.9641 48.1414 70.9237 48.0719 70.843 48.0405C70.7623 48.0046 70.6008 47.9866 70.3586 47.9866V47.7175H72.2693V47.9866C71.897 47.9866 71.6391 48.1683 71.4956 48.5316L69.7262 52.9652H69.2283L67.6204 49.0362C67.5307 48.8254 67.45 48.6527 67.3782 48.5181C67.3064 48.3836 67.2302 48.2782 67.1494 48.2019C67.0687 48.1212 66.979 48.0674 66.8803 48.0405C66.7861 48.0091 66.674 47.9934 66.5439 47.9934V47.7175H69.0871V47.9934C68.9704 47.9979 68.8718 48.0046 68.791 48.0136C68.7148 48.0225 68.6542 48.0382 68.6094 48.0607C68.5645 48.0786 68.5331 48.1055 68.5152 48.1414C68.4973 48.1728 68.4883 48.2132 68.4883 48.2625C68.4883 48.3253 68.4995 48.3993 68.5219 48.4845C68.5443 48.5697 68.578 48.6729 68.6228 48.794L69.6993 51.7408ZM75.4427 50.0319C75.7298 50.0319 75.9608 50.0229 76.1357 50.005C76.3106 49.9871 76.4452 49.9512 76.5394 49.8973C76.638 49.839 76.7076 49.7561 76.7479 49.6484C76.7883 49.5408 76.8197 49.395 76.8421 49.2111H77.091V51.1824H76.8421C76.8152 51.0029 76.7793 50.8594 76.7345 50.7518C76.6896 50.6441 76.6179 50.5634 76.5192 50.5096C76.4205 50.4513 76.286 50.4154 76.1155 50.4019C75.9496 50.384 75.7253 50.375 75.4427 50.375V51.7609C75.4427 51.9045 75.4607 52.0256 75.4966 52.1243C75.5369 52.2229 75.602 52.3037 75.6917 52.3665C75.7814 52.4248 75.9002 52.4674 76.0482 52.4943C76.1962 52.5167 76.3779 52.5279 76.5932 52.5279C76.8488 52.5279 77.0641 52.51 77.2391 52.4741C77.4185 52.4382 77.5665 52.3754 77.6831 52.2857C77.7997 52.196 77.8939 52.0772 77.9657 51.9291C78.0374 51.7766 78.098 51.586 78.1473 51.3573H78.4164L78.3088 52.8979H73.7473V52.6288C73.8953 52.6244 74.0164 52.6109 74.1106 52.5885C74.2048 52.566 74.2766 52.5279 74.3259 52.4741C74.3753 52.4203 74.4089 52.344 74.4268 52.2454C74.4448 52.1467 74.4537 52.0188 74.4537 51.8619V48.7536C74.4537 48.5966 74.4448 48.4711 74.4268 48.3769C74.4134 48.2782 74.3842 48.2019 74.3394 48.1481C74.2945 48.0898 74.2295 48.0517 74.1443 48.0337C74.0635 48.0113 73.9559 47.9956 73.8213 47.9866V47.7175H78.0733L78.1204 49.0362H77.8311C77.8042 48.8478 77.7616 48.6931 77.7033 48.572C77.645 48.4464 77.5642 48.3477 77.4611 48.2759C77.3579 48.1997 77.2234 48.1481 77.0574 48.1212C76.8959 48.0898 76.6963 48.0741 76.4586 48.0741H75.6984C75.5818 48.0741 75.51 48.0898 75.4831 48.1212C75.4562 48.1481 75.4427 48.2154 75.4427 48.323V50.0319ZM84.8662 52.8979H80.2307V52.6288C80.3787 52.6244 80.4998 52.6109 80.594 52.5885C80.6882 52.566 80.76 52.5279 80.8093 52.4741C80.8587 52.4203 80.8923 52.344 80.9102 52.2454C80.9282 52.1467 80.9371 52.0188 80.9371 51.8619V48.7536C80.9371 48.5966 80.9282 48.4711 80.9102 48.3769C80.8968 48.2782 80.8676 48.2019 80.8228 48.1481C80.7779 48.0898 80.7129 48.0517 80.6277 48.0337C80.5469 48.0113 80.4393 47.9956 80.3047 47.9866V47.7175H82.6258V47.9866C82.4733 47.9911 82.35 48.0046 82.2558 48.027C82.1661 48.0494 82.0966 48.0898 82.0472 48.1481C81.9979 48.2064 81.9643 48.2872 81.9463 48.3903C81.9329 48.4935 81.9261 48.6303 81.9261 48.8007V51.6197C81.9261 51.808 81.9441 51.9628 81.98 52.0839C82.0203 52.2005 82.0876 52.2924 82.1818 52.3597C82.276 52.4225 82.4016 52.4674 82.5585 52.4943C82.7155 52.5167 82.9106 52.5279 83.1439 52.5279C83.404 52.5279 83.6215 52.5122 83.7965 52.4808C83.9714 52.4494 84.1172 52.3911 84.2338 52.3059C84.3549 52.2162 84.4513 52.0973 84.5231 51.9493C84.5948 51.8013 84.6554 51.6085 84.7047 51.3707H84.9738L84.8662 52.8979ZM86.7828 51.1824H87.0452C87.108 51.6085 87.2784 51.9448 87.5565 52.1915C87.8346 52.4337 88.1777 52.5548 88.5859 52.5548C88.7518 52.5548 88.9043 52.5346 89.0434 52.4943C89.1824 52.4539 89.3013 52.3978 89.3999 52.3261C89.4986 52.2498 89.5749 52.1624 89.6287 52.0637C89.6825 51.9605 89.7094 51.8462 89.7094 51.7206C89.7094 51.6129 89.6915 51.521 89.6556 51.4447C89.6242 51.364 89.5614 51.2878 89.4672 51.216C89.373 51.1397 89.243 51.0635 89.077 50.9873C88.9155 50.911 88.7047 50.8235 88.4446 50.7249C87.9198 50.523 87.5319 50.2898 87.2807 50.0252C87.0295 49.7561 86.9039 49.4399 86.9039 49.0766C86.9039 48.8657 86.9443 48.6729 87.025 48.498C87.1058 48.323 87.2179 48.1728 87.3614 48.0472C87.5094 47.9216 87.6843 47.8252 87.8862 47.7579C88.0925 47.6861 88.319 47.6503 88.5657 47.6503C88.7944 47.6503 89.0097 47.6861 89.2116 47.7579C89.4134 47.8297 89.613 47.9373 89.8103 48.0808L89.9314 47.7444H90.0929L90.1669 49.1977H89.9045C89.7969 48.8299 89.6287 48.5495 89.3999 48.3567C89.1712 48.1593 88.9066 48.0607 88.6061 48.0607C88.328 48.0607 88.1015 48.1302 87.9266 48.2692C87.7561 48.4038 87.6709 48.5787 87.6709 48.794C87.6709 48.8882 87.6866 48.9734 87.718 49.0496C87.7494 49.1214 87.8077 49.1909 87.8929 49.2582C87.9781 49.3255 88.0947 49.395 88.2428 49.4668C88.3908 49.534 88.5814 49.6103 88.8146 49.6955C89.1286 49.8166 89.3955 49.94 89.6152 50.0655C89.8395 50.1866 90.0211 50.319 90.1602 50.4625C90.3037 50.6015 90.4091 50.7495 90.4764 50.9065C90.5437 51.0635 90.5773 51.2362 90.5773 51.4246C90.5773 51.6533 90.528 51.8619 90.4293 52.0502C90.3306 52.2386 90.1916 52.4001 90.0122 52.5346C89.8372 52.6692 89.6264 52.7746 89.3798 52.8509C89.1376 52.9271 88.8684 52.9652 88.5724 52.9652C88.3033 52.9652 88.0611 52.9293 87.8458 52.8576C87.6305 52.7813 87.4085 52.6602 87.1798 52.4943L87.0452 52.8979H86.8837L86.7828 51.1824Z" fill="white"/>
<path d="M86.6586 14.8304L87.2154 19.6207L86.4222 20.2609L84.8632 16.2796L82.7374 17.9953L83.037 19.7184L82.4421 20.1985L81.3983 18.0938L79.5612 16.6292L80.1561 16.149L81.7775 16.8052L83.9033 15.0894L80.3402 12.7256L81.1334 12.0854L85.6982 13.6407L87.8585 11.897C88.0163 11.7697 88.2182 11.7103 88.4198 11.7318C88.6214 11.7533 88.8062 11.854 88.9335 12.0118C89.0609 12.1696 89.1203 12.3715 89.0988 12.5731C89.0773 12.7747 88.9766 12.9595 88.8188 13.0868L86.6586 14.8304Z" fill="#16B267"/>
<path d="M80.7864 19.3135C52.2168 50.21 0.765239 59.6471 20.4151 31.0774L21.5269 33.5778L20.9138 34.1914C17.373 37.735 19.5641 43.8006 24.5521 44.2634H25.4023C28.3252 44.2634 31.2348 43.8721 34.0538 43.1C39.5886 42.0702 44.964 40.3174 50.0419 37.8865L54.5438 35.7313L67.4712 27.9749L80.7864 19.3135Z" fill="#16B267" stroke="white" stroke-width="0.367971"/>
<path d="M41.3544 10.7489C40.0248 6.04998 36.1309 4.0511 31.6673 4.81085C27.5569 5.5105 25.4096 10.6346 24.4094 13.7419C24.7069 9.62621 23.9464 3.9027 19.0361 1.23012C11.5332 -2.85368 6.78466 4.45921 6.30978 5.40888C5.8349 6.35863 5.83412 6.54042 7.16449 6.45359C7.56075 6.42765 11.0138 5.45575 14.4024 6.06857L15.9969 4.59802L16.7359 6.67032C19.5434 7.65414 21.7961 10.1754 22.2019 13.9557C19.9241 11.1555 16.4109 9.35258 12.4547 9.35258C5.57597 9.35258 0 14.777 0 21.4682C0 22.0068 0.0111562 21.6203 0.0111562 21.6203C0.0304419 21.874 0.196575 22.0929 0.435527 22.1797C0.674392 22.2658 0.942316 22.2042 1.11961 22.0217C1.11961 22.0217 1.25832 21.8057 1.8816 21.2359C2.97968 20.2312 4.18758 19.3461 5.48162 18.5915L6.66505 16.3827L8.26178 17.2307C10.6576 16.2759 13.2708 15.749 16.0079 15.749C17.8131 15.749 19.5657 15.9783 21.2373 16.4078C17.3828 16.1526 11.5732 18.1619 9.2738 23.067C6.42463 29.1452 9.22848 33.9695 9.63366 34.3471C9.96609 34.6566 10.3682 34.4154 10.4773 33.876C10.7154 32.697 11.3699 30.4934 12.5718 28.0218L12.0866 26.0616L13.4229 26.4036C15.0975 23.4505 17.5498 20.3498 21.0184 18.2612C18.7736 23.207 16.8612 30.0639 18.2733 38.9047C18.7888 42.1316 21.739 44.2791 25.0068 44.2791H27.3219C27.3219 44.2791 19.3682 36.1589 23.7251 19.5077C24.672 20.7312 25.8768 22.5068 26.8823 24.6695L28.1532 24.8299L27.5856 26.3508C28.2816 28.2132 28.7824 30.2937 28.8521 32.5203C28.8699 33.0886 29.2127 33.5094 29.3878 33.1369C32.0708 27.4193 31.2271 21.5673 27.4661 18.1528C29.8375 18.9348 31.7755 20.8416 33.2854 23.023L35.0861 23.4096L34.7507 25.4396C36.0143 27.8421 36.7897 30.2209 37.0665 31.5846C37.1755 32.1217 37.4604 32.472 37.804 31.8607C39.8511 28.2177 40.1153 21.2267 36.4158 17.3997C33.5473 14.4334 28.4864 14.2381 25.3694 15.0603C27.4157 11.6197 32.8908 11.3637 32.8908 11.3637C32.8908 11.3637 33.7566 9.36953 33.9466 9.08457C34.1365 8.79969 35.1813 11.0271 35.1813 11.0271L40.6941 13.279C40.6941 13.279 41.4019 13.7629 41.5399 12.9407C41.623 12.4442 41.6734 11.6793 41.3544 10.7489Z" fill="white"/>
</svg>
